<svg width="282" height="208" viewBox="0 0 282 208" fill="none" xmlns="http://www.w3.org/2000/svg">
<path opacity="0.05" fill-rule="evenodd" clip-rule="evenodd" d="M121.957 74.8926C121.959 49.6713 121.961 22.2869 121.997 0.350545C86.1275 0.367513 36.7969 0.373169 0.225891 0.322266C0.237333 4.63966 0.228199 9.8212 0.221037 13.8846C0.217578 15.847 0.214579 17.5486 0.214579 18.7661C0.212854 27.1318 0.160081 35.4985 0.10731 43.8652C-0.0129211 62.9272 -0.13315 81.9888 0.35032 101.037C1.11387 131.013 13.5794 156.001 35.9202 175.915C55.8176 193.652 79.414 203.239 105.731 206.349C111.008 206.977 116.155 207.322 121.76 207.322V160.899C120.263 160.567 118.784 160.253 117.321 159.942C114.174 159.274 111.098 158.621 108.055 157.833C93.1974 153.97 80.9863 146.601 74.2784 132.02C70.3985 123.587 68.7526 114.752 68.8375 105.245H121.952C121.955 95.9042 121.956 85.593 121.957 74.8926ZM281.96 74.9054C281.962 49.6806 281.964 22.2906 282 0.350545C246.13 0.367513 196.798 0.373169 160.226 0.322266C160.237 4.63922 160.228 9.82014 160.221 13.8833C160.218 15.8463 160.215 17.5483 160.215 18.7661C160.213 27.1319 160.16 35.4987 160.107 43.8655C159.987 62.9274 159.867 81.9889 160.35 101.037C161.114 131.013 173.58 156.001 195.921 175.915C215.819 193.652 239.416 203.239 265.733 206.349C271.01 206.977 276.157 207.322 281.762 207.322V160.899C280.265 160.567 278.787 160.253 277.324 159.942C274.177 159.274 271.1 158.621 268.058 157.833C253.2 153.97 240.988 146.601 234.28 132.02C230.4 123.587 228.754 114.752 228.839 105.245H281.955C281.958 95.9079 281.959 85.6013 281.96 74.9054Z" fill="black"/>
</svg>
