<svg width="406" height="474" viewBox="0 0 406 474" fill="none" xmlns="http://www.w3.org/2000/svg">
<path d="M497.574 -125.02L497.557 -125.018L496.898 -125.569L0.974728 475.915L2.31036 477.015L478.552 -100.597L43.2698 492.064L44.6663 493.088L480.507 -100.32L85.5649 508.214L87.0222 509.16L482.363 -99.9977L127.843 524.366L129.359 525.218L484.141 -99.5959L170.157 540.531L171.715 541.29L485.838 -99.1322L212.452 556.68L214.051 557.348L487.479 -98.557L254.749 572.847L256.388 573.405L489.08 -97.8725L297.046 589.014L298.725 589.463L490.657 -97.0977L339.359 605.162L341.064 605.537L492.244 -96.2367L381.673 621.327L383.383 621.597L493.863 -95.2572L423.988 637.491L425.72 637.654L495.484 -94.1035L466.3 653.639L468.039 653.714L498.435 -124.981L497.574 -125.02Z" fill="white" fill-opacity="0.35"/>
</svg>
