<svg width="22" height="16" viewBox="0 0 22 16" fill="none" xmlns="http://www.w3.org/2000/svg">
<path d="M13.8041 14.5087C13.8041 14.1376 13.9208 13.8901 14.1541 13.6427L19.9875 7.45663C20.4541 6.96175 21.1541 6.96175 21.6208 7.45663C22.0875 7.95152 22.0875 8.69384 21.6208 9.18873L15.7874 15.3748C15.3208 15.8697 14.6208 15.8697 14.1541 15.3748C13.9208 15.1273 13.8041 14.8799 13.8041 14.5087Z" fill="black"/>
<path d="M13.8041 2.13662C13.8041 1.76546 13.9208 1.51802 14.1541 1.27058C14.6208 0.775693 15.3208 0.775693 15.7874 1.27058L21.6208 7.45663C22.0875 7.95152 22.0875 8.69384 21.6208 9.18873C21.1541 9.68361 20.4541 9.6836 19.9875 9.18871L14.1541 3.00267C13.9208 2.75523 13.8041 2.50779 13.8041 2.13662Z" fill="black"/>
<path d="M0.970703 8.32268C0.970703 7.58035 1.43737 7.08547 2.13738 7.08547L20.8041 7.08547C21.5041 7.08547 21.9708 7.58036 21.9708 8.32268C21.9708 9.06501 21.5041 9.55989 20.8041 9.55989L2.13738 9.55989C1.43737 9.55989 0.970703 9.06501 0.970703 8.32268Z" fill="black"/>
</svg>
