<svg width="55" height="54" viewBox="0 0 55 54" fill="none" xmlns="http://www.w3.org/2000/svg">
<path d="M34.2909 30.6948C34.0326 30.4729 33.9358 30.2748 33.9029 30.0109L33.2963 25.1421L35.1015 23.591C35.1124 23.5816 35.1231 23.5721 35.1335 23.5625L35.9692 30.27C36.0016 30.5297 35.9156 30.7284 35.768 30.8553C35.6203 30.9821 35.389 31.056 35.0869 31.0282C34.7796 30.9999 34.5491 30.9167 34.2909 30.6948ZM34.2489 23.8646L33.2447 24.7275L33.1249 23.7663L34.113 23.8572C34.1589 23.8614 34.2043 23.8639 34.2489 23.8646ZM32.7406 23.7309L32.9015 25.0224L22.3743 34.068C22.1808 34.2342 21.946 34.3012 21.6978 34.2783C21.4452 34.2551 21.164 34.1368 20.8972 33.9075C20.6303 33.6783 20.4926 33.4366 20.4656 33.2195C20.439 33.0063 20.517 32.8045 20.7104 32.6383L31.2376 23.5927L32.7406 23.7309ZM34.1532 23.5344L33.0838 23.4361L32.9693 22.5171C32.9369 22.2575 33.0229 22.0587 33.1705 21.9318C33.3181 21.805 33.5495 21.7311 33.8516 21.7589C34.4609 21.815 34.9704 22.2527 35.0356 22.7763C35.0679 23.0359 34.982 23.2347 34.8343 23.3615C34.6867 23.4884 34.4554 23.5622 34.1532 23.5344ZM32.5851 22.4349C32.5859 22.4732 32.5887 22.5122 32.5937 22.5516L32.6994 23.4007L31.5808 23.2978L32.5851 22.4349ZM32.9034 21.7023L31.0982 23.2534L25.4321 22.7322C25.1248 22.7039 24.8943 22.6207 24.636 22.3988C24.3778 22.177 24.281 21.9789 24.2481 21.7149C24.2157 21.4552 24.3017 21.2565 24.4493 21.1296C24.597 21.0028 24.8283 20.9289 25.1304 20.9567L32.9366 21.6748C32.9254 21.6837 32.9143 21.6929 32.9034 21.7023Z" fill="#FE6839" stroke="#FE6839" stroke-width="0.352174"/>
<circle cx="27.9707" cy="27" r="26.413" stroke="#FE6839" stroke-width="1.17391"/>
</svg>
