<svg width="21" height="15" viewBox="0 0 21 15" fill="none" xmlns="http://www.w3.org/2000/svg">
<path d="M12.8334 13.1557C12.8334 12.8057 12.9501 12.5723 13.1834 12.339L19.0168 6.50564C19.4834 6.03897 20.1834 6.03897 20.6501 6.50564C21.1168 6.97231 21.1168 7.67231 20.6501 8.13898L14.8167 13.9723C14.3501 14.439 13.6501 14.439 13.1834 13.9723C12.9501 13.739 12.8334 13.5057 12.8334 13.1557Z" fill="black"/>
<path d="M12.8334 1.48894C12.8334 1.13894 12.9501 0.905602 13.1834 0.672267C13.6501 0.205598 14.3501 0.205598 14.8167 0.672267L20.6501 6.50564C21.1168 6.97231 21.1168 7.67231 20.6501 8.13898C20.1834 8.60565 19.4834 8.60564 19.0168 8.13897L13.1834 2.30561C12.9501 2.07227 12.8334 1.83894 12.8334 1.48894Z" fill="black"/>
<path d="M0 7.32231C3.05981e-08 6.62231 0.46667 6.15564 1.16667 6.15564L19.8334 6.15564C20.5334 6.15564 21.0001 6.62231 21.0001 7.32231C21.0001 8.02232 20.5334 8.48899 19.8334 8.48899L1.16667 8.48898C0.46667 8.48898 -3.05981e-08 8.02232 0 7.32231Z" fill="black"/>
</svg>
