<svg width="111" height="114" viewBox="0 0 111 114" fill="none" xmlns="http://www.w3.org/2000/svg">
<path d="M55.5442 12.5254C56.2715 12.5254 56.8641 11.9328 56.8641 11.2055V1.31988C56.8641 0.592597 56.2715 0 55.5442 0C54.817 0 54.2244 0.592597 54.2244 1.31988V11.2055C54.2244 11.9328 54.817 12.5254 55.5442 12.5254Z" fill="#010101"/>
<path d="M110.978 83.1519C110.978 81.4145 110.305 79.7803 109.079 78.5592L105.165 74.6535C103.939 73.4324 102.309 72.759 100.572 72.759C99.4765 72.759 98.3946 73.0328 97.4473 73.5536L96.8592 73.8768L88.3698 65.3964L89.3664 64.4042C92.0107 61.7555 92.0107 57.4547 89.3664 54.8149C88.4282 53.8766 87.2519 53.2391 85.9635 52.9743L85.0117 52.7767L85.2811 51.8429C85.4607 51.2234 85.5505 50.5814 85.5505 49.9349C85.5505 48.1167 84.8456 46.4153 83.5662 45.1403C82.6279 44.202 81.4517 43.5645 80.1587 43.2996L79.207 43.1021L79.4763 42.1683C79.6559 41.5488 79.7457 40.9068 79.7457 40.2603C79.7457 38.4421 79.0409 36.7407 77.7614 35.4657C76.8276 34.5319 75.6514 33.8989 74.3584 33.6295L73.4112 33.432L73.6805 32.5027C74.3719 30.1143 73.7165 27.5464 71.9656 25.7911C70.511 24.341 68.4953 23.6362 66.4392 23.8561L66.309 23.8696L51.5614 21.0772C49.5367 20.6956 47.0271 20.4263 45.5636 21.7596C45.4783 21.8359 45.3885 21.9302 45.3032 22.029L44.8991 22.5003L44.3155 22.2893C41.8329 21.387 39.0315 22.002 37.1729 23.8606C35.8934 25.1356 35.1931 26.8416 35.1931 28.6598C35.1931 29.3062 35.2829 29.9482 35.4625 30.5678L35.7318 31.5016L34.7801 31.6991C33.4916 31.964 32.3154 32.6015 31.3816 33.5352C30.0977 34.8102 29.3928 36.5117 29.3928 38.3299C29.3928 38.9764 29.4826 39.6184 29.6622 40.2424L29.9315 41.1762L28.9798 41.3737C27.6913 41.6386 26.5151 42.2761 25.5768 43.2099C24.2974 44.4893 23.5925 46.1953 23.5925 48.009C23.5925 49.3917 24.0011 50.7161 24.7777 51.8429L25.4511 52.8216L24.3288 53.2032C23.3411 53.5399 22.4657 54.0831 21.725 54.8239C19.0807 57.4636 19.0807 61.7689 21.725 64.4222L22.7171 65.4143L14.2546 73.8588L13.6845 73.5895C11.2108 72.4222 8.24784 72.9385 6.31741 74.8645L2.39818 78.7702C1.17707 79.9779 0.503662 81.612 0.503662 83.3494C0.503662 85.0868 1.17707 86.7209 2.40267 87.942L7.2916 92.8265C7.78993 93.3248 8.66086 93.3248 9.1547 92.8265C9.40161 92.5751 9.54078 92.2474 9.54078 91.8927C9.54078 91.538 9.40161 91.2103 9.1547 90.9589L4.26576 86.0745C3.54297 85.3517 3.14342 84.382 3.14342 83.3494C3.14342 82.3168 3.54297 81.3471 4.26576 80.6243L8.18499 76.7186C9.43753 75.4705 11.3724 75.2326 12.8944 76.1395L13.0694 76.2427L13.1817 76.4133C13.2311 76.4851 13.2849 76.557 13.3478 76.6153C13.4555 76.7231 13.5812 76.8129 13.7249 76.8757L13.8685 76.9431L13.9808 77.0553L36.5624 99.601L36.6297 99.7491C36.697 99.8973 36.7868 100.023 36.8946 100.131C36.9978 100.234 37.1235 100.324 37.2672 100.391L37.4333 100.472L37.5545 100.611C38.174 101.311 38.5152 102.218 38.5152 103.161C38.5152 104.194 38.1157 105.163 37.3929 105.886L33.4782 109.796C31.9742 111.296 29.523 111.296 28.0191 109.796L23.1301 104.907C22.8832 104.66 22.551 104.521 22.1963 104.521C21.8417 104.521 21.514 104.656 21.2626 104.907C20.7463 105.424 20.7463 106.259 21.2626 106.77L26.156 111.664C27.3771 112.881 29.0067 113.554 30.7441 113.554C32.4815 113.554 34.1112 112.881 35.3368 111.664L39.2515 107.754C40.4726 106.533 41.1505 104.903 41.1505 103.161C41.1505 101.931 40.8093 100.741 40.1628 99.7132L39.7812 99.1071L48.5939 90.3079C49.8509 89.0105 52.5805 89.1991 55.4671 89.3966C57.2404 89.5178 59.2382 89.6615 61.1417 89.4415L61.5727 89.3921L71.4493 99.2553L71.1261 99.8479C70.6053 100.795 70.3315 101.873 70.3315 102.964C70.3315 104.701 71.0049 106.331 72.2305 107.552L76.1452 111.462C77.3663 112.683 79.0005 113.356 80.7379 113.356C82.4752 113.356 84.1049 112.683 85.3305 111.462L109.084 87.74C110.309 86.5189 110.983 84.8893 110.983 83.1474L110.978 83.1519ZM47.1618 23.6451L47.8352 23.4835C48.4951 23.3219 49.586 23.3848 51.0765 23.6676L62.3583 25.8045L54.9509 33.2075L54.3762 32.9337C53.7073 32.6104 52.338 31.8383 50.6949 30.267C48.7151 28.3725 47.3683 26.2714 47.1708 24.7765L47.1618 24.7495L47.1528 24.6014C47.1438 24.5161 47.1438 24.4173 47.1438 24.341L47.1573 23.6496L47.1618 23.6451ZM39.036 25.7192C40.4412 24.3141 42.6589 24.1031 44.311 25.2209L44.5983 25.4184L44.6792 25.7596C45.3481 28.5655 47.8352 31.1783 48.8722 32.1705C49.622 32.8888 52.2662 35.2726 54.8476 35.9011L55.1753 35.982L55.3684 36.2603C55.8532 36.9562 56.1091 37.7777 56.1091 38.6307C56.1091 39.7441 55.6781 40.7856 54.897 41.5667C54.1203 42.3479 53.0743 42.7744 51.9609 42.7744C50.8476 42.7744 49.8015 42.3434 49.0204 41.5623L39.027 31.5869C38.2459 30.8102 37.8194 29.7687 37.8194 28.6553C37.8194 27.5419 38.2504 26.5004 39.027 25.7237L39.036 25.7192ZM33.2447 35.3894C34.0259 34.6082 35.0674 34.1817 36.1763 34.1817C37.2851 34.1817 38.3357 34.6127 39.1168 35.3938L47.1663 43.4253C48.7825 45.046 48.7869 47.6768 47.1708 49.293C46.3851 50.0741 45.3436 50.5051 44.2257 50.5051C43.1079 50.5051 42.0663 50.0786 41.2852 49.2975L33.2402 41.257C32.4591 40.4758 32.0281 39.4298 32.0281 38.3209C32.0281 37.212 32.4591 36.1705 33.2447 35.3938V35.3894ZM27.4444 45.0595C28.2256 44.2828 29.2671 43.8518 30.3805 43.8518C31.4939 43.8518 32.5219 44.2738 33.2986 45.0415L39.4266 51.165C40.2077 51.9417 40.6387 52.9832 40.6387 54.0966C40.6387 55.21 40.2077 56.2515 39.4266 57.0282C38.6499 57.8048 37.6039 58.2358 36.4905 58.2358C35.3772 58.2358 34.3311 57.8093 33.55 57.0282L27.4444 50.9316C26.6633 50.1504 26.2323 49.1089 26.2323 47.9955C26.2323 46.8822 26.6633 45.8406 27.4444 45.0595ZM23.5836 56.6735C24.3647 55.8924 25.4107 55.4614 26.5241 55.4614C27.6375 55.4614 28.6835 55.8924 29.4647 56.6735L31.6869 58.8957C32.468 59.6724 32.899 60.7139 32.899 61.8273C32.899 62.9407 32.468 63.9822 31.6824 64.7634C30.9057 65.5445 29.8642 65.971 28.7463 65.971C27.6285 65.971 26.587 65.54 25.8058 64.7544L23.5881 62.5456C21.9719 60.9249 21.9674 58.2942 23.5881 56.678L23.5836 56.6735ZM64.5267 88.6154L65.465 88.0139C65.9409 87.7086 66.3808 87.3539 66.7714 86.9634L68.7422 84.9925C68.9936 84.7456 69.1283 84.4134 69.1283 84.0587C69.1283 83.7086 68.9936 83.3763 68.7422 83.1249C68.2439 82.6266 67.3775 82.6266 66.8791 83.1249L64.9083 85.0958C62.7444 87.2597 59.1439 87.0082 55.6602 86.7658C52.2976 86.5324 48.8229 86.2899 46.7263 88.4404L37.9181 97.235L16.2344 75.5828L24.5937 67.237L25.1952 67.6051C26.2547 68.2561 27.4803 68.5973 28.7374 68.5973C30.5556 68.5973 32.2615 67.8925 33.5365 66.6175C34.8205 65.338 35.5253 63.6365 35.5253 61.8183V60.9654L36.0281 60.907V60.8666H36.3873L36.8183 60.8172V60.8576C38.5107 60.7723 40.0775 60.0809 41.2717 58.8913C42.5557 57.6118 43.2605 55.9103 43.2605 54.0921V53.2481L44.1359 53.1359H44.2257C46.0305 53.1359 47.7409 52.4355 49.0249 51.1561C50.3133 49.8676 51.0137 48.1437 51.0047 46.312V45.3962L52.0103 45.4052C53.8106 45.3917 55.4941 44.6914 56.7601 43.4253C58.0396 42.1459 58.7444 40.4444 58.7444 38.6262C58.7444 37.3692 58.4032 36.1436 57.7567 35.0886L57.3886 34.487L64.2214 27.6586C64.805 27.0795 65.5368 26.6889 66.3449 26.5273C66.4571 26.5139 66.4975 26.5049 66.5424 26.4959C67.8893 26.3073 69.1777 26.7293 70.1025 27.6542C71.7187 29.2748 71.7232 31.9056 70.107 33.5263L65.9364 37.6834C65.6895 37.9303 65.5503 38.2626 65.5503 38.6172C65.5503 38.9719 65.685 39.2996 65.9364 39.551C66.4482 40.0628 67.2877 40.0673 67.7995 39.551L70.0307 37.3243C71.6513 35.7171 74.2821 35.7216 75.8983 37.3377C76.6795 38.1144 77.1104 39.1559 77.1104 40.2693C77.1104 41.3827 76.6795 42.4242 75.8938 43.2054L71.7322 47.3625C71.4808 47.6094 71.3461 47.9417 71.3416 48.2963C71.3416 48.6465 71.4763 48.9787 71.7277 49.2301C72.2395 49.7464 73.0745 49.7464 73.5908 49.2301L75.822 47.0079C76.5986 46.2267 77.6402 45.8002 78.758 45.8002C79.8759 45.8002 80.9174 46.2312 81.6986 47.0168C82.4797 47.7935 82.9062 48.835 82.9062 49.9439C82.9062 51.0528 82.4752 52.0988 81.6896 52.88L77.8242 56.7453C77.5773 56.9967 77.4382 57.3245 77.4382 57.6791C77.4382 58.0293 77.5773 58.3615 77.8242 58.6129C78.2956 59.0843 79.2204 59.0843 79.6873 58.6129L81.6178 56.6825C82.3944 55.9058 83.436 55.4748 84.5493 55.4748C85.6627 55.4748 86.7087 55.9058 87.4899 56.687C89.1061 58.2987 89.1061 60.9294 87.4899 62.5501L82.5022 67.5333C81.9859 68.0451 81.9859 68.8846 82.5022 69.3964C82.7356 69.6299 83.0678 69.7511 83.436 69.7645C83.7951 69.7645 84.1318 69.6299 84.3653 69.3964L86.4977 67.2684L94.9378 75.6995L73.2585 97.3563L64.5222 88.6289L64.5267 88.6154ZM107.216 85.8724L83.4629 109.594C82.7401 110.317 81.7704 110.717 80.7334 110.717C79.6963 110.717 78.7311 110.317 78.0038 109.594L74.0891 105.684C73.3663 104.961 72.9667 103.992 72.9667 102.959C72.9667 101.926 73.3663 100.961 74.0891 100.234L97.8424 76.5121C98.5697 75.7893 99.5349 75.3897 100.572 75.3897C101.609 75.3897 102.574 75.7893 103.301 76.5166L107.216 80.4178C107.943 81.1406 108.339 82.1103 108.339 83.1429C108.339 84.1799 107.939 85.1452 107.216 85.8679V85.8724Z" fill="#010101"/>
<path d="M33.3091 16.9739C33.3091 16.6193 33.1699 16.2915 32.923 16.0446L24.8466 7.98618C24.5997 7.73927 24.2675 7.6001 23.9173 7.6001C23.5626 7.6001 23.2349 7.73927 22.9835 7.98618C22.7366 8.2331 22.5974 8.56531 22.5974 8.91997C22.5974 9.27464 22.7366 9.60236 22.9835 9.84928L31.0599 17.9077C31.5582 18.4015 32.4292 18.4015 32.923 17.9077C33.1699 17.6608 33.3091 17.3286 33.3091 16.9739Z" fill="#010101"/>
<path d="M87.5845 10.366C87.8314 10.1191 87.9706 9.78684 87.9706 9.43218C87.9706 9.07752 87.8359 8.7498 87.5845 8.49839C87.3376 8.25148 87.0054 8.1123 86.6507 8.1123C86.2961 8.1123 85.9683 8.25148 85.7169 8.49839L77.6495 16.5568C77.3981 16.8037 77.2634 17.136 77.2634 17.4906C77.2634 17.8453 77.3981 18.173 77.6495 18.4244C78.1389 18.9138 79.0233 18.9138 79.5126 18.4244L87.58 10.366H87.5845Z" fill="#010101"/>
<path d="M74.799 78.4068C75.0055 78.4068 75.2075 78.3575 75.3961 78.2632C75.7103 78.1061 75.9438 77.8322 76.056 77.5C76.1682 77.1678 76.1413 76.8086 75.9797 76.4944C75.8226 76.1801 75.5487 75.9467 75.2165 75.8344C75.0818 75.7895 74.9427 75.7671 74.8035 75.7671C74.597 75.7671 74.3994 75.8165 74.2109 75.9107C73.8921 76.0724 73.6587 76.3417 73.5465 76.6784C73.4342 77.0106 73.4612 77.3698 73.6228 77.6841C73.8472 78.1285 74.3007 78.4068 74.8035 78.4068H74.799Z" fill="#010101"/>
</svg>
