<svg width="97" height="97" viewBox="0 0 97 97" fill="none" xmlns="http://www.w3.org/2000/svg">
<path d="M85.1736 84.5799C84.4957 84.5799 83.9435 85.1321 83.9435 85.81V91.1434C83.9435 92.5665 82.7853 93.7203 81.3666 93.7203H5.54996C4.12683 93.7203 2.97306 92.562 2.97306 91.1434V5.04157C2.97306 3.61844 4.13132 2.46467 5.54996 2.46467H81.3666C82.7897 2.46467 83.9435 3.62293 83.9435 5.04157V15.1382C83.9435 15.8161 84.4957 16.3683 85.1736 16.3683C85.8515 16.3683 86.4037 15.8161 86.4037 15.1382V5.04157C86.4037 2.26265 84.141 0 81.3621 0H5.54547C2.76654 0 0.503906 2.26265 0.503906 5.04157V91.1479C0.503906 93.9268 2.76654 96.1895 5.54547 96.1895H81.3621C84.141 96.1895 86.4037 93.9268 86.4037 91.1479V85.8145C86.4037 85.1366 85.8515 84.5844 85.1736 84.5844V84.5799Z" fill="#010101"/>
<path d="M74.7983 15.3303C74.7983 16.0082 75.3505 16.5604 76.0284 16.5604C76.7063 16.5604 77.2585 16.0082 77.2585 15.3303V10.3785C77.2585 9.70063 76.7063 9.14844 76.0284 9.14844H10.8785C10.2006 9.14844 9.64844 9.70063 9.64844 10.3785V50.1903C9.64844 50.8682 10.2006 51.4204 10.8785 51.4204C11.5564 51.4204 12.1086 50.8682 12.1086 50.1903V11.6086H74.7983V15.3303Z" fill="#010101"/>
<path d="M10.0076 58.1104C10.4655 58.5683 11.2871 58.5683 11.7495 58.1104C11.9784 57.8814 12.1086 57.5672 12.1086 57.2395C12.1086 56.9117 11.9784 56.5975 11.7495 56.3685C11.5205 56.1396 11.2018 56.0049 10.8785 56.0049C10.5553 56.0049 10.2365 56.1351 10.0076 56.364C9.77862 56.593 9.64844 56.9117 9.64844 57.235C9.64844 57.5582 9.77862 57.877 10.0076 58.1059V58.1104Z" fill="#010101"/>
<path d="M12.1086 64.5709C12.1086 63.893 11.5564 63.3408 10.8785 63.3408C10.2006 63.3408 9.64844 63.893 9.64844 64.5709V85.8102C9.64844 86.4881 10.2006 87.0403 10.8785 87.0403H76.0284C76.7063 87.0403 77.2585 86.4881 77.2585 85.8102V81.6216C77.2585 80.9437 76.7063 80.3915 76.0284 80.3915C75.3505 80.3915 74.7983 80.9437 74.7983 81.6216V84.5801H12.1086V64.5709Z" fill="#010101"/>
<path d="M58.3916 68.8531C58.8719 68.3727 58.8719 67.5916 58.3916 67.1112C57.9516 66.6713 57.0851 66.6713 56.6497 67.1112L52.4072 71.3537L49.5924 68.5388C48.3757 67.3267 46.4004 67.3222 45.1838 68.5388L43.6619 70.0607C43.4285 70.2942 43.3027 70.604 43.3027 70.9317C43.3027 71.2594 43.4329 71.5692 43.6619 71.8026C44.1198 72.2605 44.9459 72.256 45.4038 71.8026L47.3881 69.8183L50.2029 72.6332C50.791 73.2213 51.5722 73.5445 52.4072 73.5445C53.2422 73.5445 54.0234 73.2213 54.6115 72.6332L58.3916 68.8531Z" fill="#010101"/>
<path d="M95.9221 38.9272C96.6583 37.7779 96.8783 36.3592 96.5237 35.0393C96.169 33.7195 95.2711 32.6016 94.059 31.9731C93.2239 31.5421 92.7167 30.6577 92.7616 29.7239C92.8244 28.3592 92.3081 27.0213 91.3384 26.0561C90.3732 25.0909 89.0309 24.5701 87.6706 24.6375C86.7323 24.6868 85.8524 24.175 85.4214 23.34C84.7929 22.1279 83.6751 21.2255 82.3552 20.8709C81.0353 20.5162 79.6211 20.7362 78.4674 21.4769C77.6772 21.9842 76.6582 21.9842 75.8725 21.4769C74.7232 20.7407 73.3046 20.5207 71.9847 20.8709C70.6648 21.2255 69.547 22.1234 68.9184 23.3355C68.4875 24.1706 67.5941 24.6734 66.6693 24.633C65.3045 24.5701 63.9667 25.0864 63.0014 26.0516C62.0362 27.0168 61.5155 28.3547 61.5783 29.7194C61.6232 30.6532 61.1114 31.5376 60.2809 31.9686C59.0643 32.5971 58.1664 33.715 57.8117 35.0349C57.6456 35.6589 57.6052 36.3009 57.695 36.9518L57.7983 37.715H23.7867C23.1088 37.715 22.5566 38.2672 22.5566 38.9451C22.5566 39.623 23.1088 40.1752 23.7867 40.1752H58.9924L58.6288 41.0955C58.5659 41.2571 58.4986 41.3918 58.4223 41.513C57.6816 42.6668 57.4616 44.081 57.8162 45.4008C57.8611 45.5714 57.9195 45.7465 57.9913 45.9306L58.3549 46.8509H23.7867C23.1088 46.8509 22.5566 47.4031 22.5566 48.081C22.5566 48.7589 23.1088 49.3111 23.7867 49.3111H61.2596L61.4257 49.7466C61.5424 50.0563 61.5963 50.384 61.5828 50.7118C61.52 52.0765 62.0362 53.4144 63.0059 54.3796C63.9756 55.3493 65.3045 55.8656 66.6738 55.7982C66.7142 55.7982 66.7501 55.7982 66.7905 55.7982C67.6928 55.7982 68.5099 56.2966 68.9229 57.1002C69.1205 57.4818 69.3719 57.8409 69.6682 58.1596L69.8477 58.3527V76.409C69.8477 76.9073 70.1441 77.3562 70.6065 77.5448C71.0689 77.7378 71.5941 77.6346 71.9488 77.2799L77.1744 72.0812L82.4001 77.2799C82.7502 77.6256 83.289 77.7333 83.7424 77.5448C84.2048 77.3517 84.5011 76.9073 84.5011 76.409V58.3527L84.6807 58.1596C84.977 57.8409 85.2284 57.4818 85.4259 57.1002C85.8524 56.2741 86.7413 55.7668 87.6706 55.8027C89.0398 55.8656 90.3732 55.3493 91.3429 54.3841C92.3081 53.4189 92.8289 52.081 92.7661 50.7163C92.7212 49.7825 93.2329 48.8981 94.0635 48.4671C95.2756 47.8386 96.178 46.7207 96.5281 45.4008C96.8783 44.081 96.6628 42.6623 95.9266 41.513C95.4193 40.7229 95.4193 39.7038 95.9266 38.9182L95.9221 38.9272ZM78.0409 69.4819C77.5605 69.006 76.7838 69.006 76.3035 69.4819L72.3079 73.455V59.6995L73.0128 59.7309C74.0274 59.7803 75.0195 59.5154 75.8725 58.9677C76.6582 58.4604 77.6772 58.4604 78.4674 58.9677C79.3203 59.5154 80.3035 59.7758 81.3136 59.7309L81.996 59.6995L82.0319 60.3819V73.455L78.0364 69.4819H78.0409ZM93.848 42.8509C94.2161 43.4255 94.3238 44.1079 94.1488 44.7723C93.9692 45.4368 93.5382 45.971 92.9277 46.2852C91.2441 47.1562 90.2116 48.943 90.3014 50.8375C90.3328 51.5243 90.0859 52.1663 89.601 52.6512C89.1162 53.136 88.4697 53.383 87.7873 53.3515C85.8883 53.2662 84.106 54.2988 83.2351 55.9778C82.9208 56.5884 82.3821 57.0193 81.7222 57.1944C81.0712 57.3695 80.3709 57.2618 79.8007 56.8981C78.2294 55.8925 76.1149 55.8925 74.5437 56.8981C74.1486 57.1495 73.7041 57.2797 73.2552 57.2797C73.0442 57.2797 72.8332 57.2528 72.6222 57.1944C71.9622 57.0193 71.4235 56.5839 71.1093 55.9778C70.2383 54.2898 68.4516 53.2573 66.5571 53.3515C65.8702 53.3785 65.2282 53.1315 64.7433 52.6512C64.2585 52.1663 64.0116 51.5243 64.043 50.8375C64.1013 49.5356 63.621 48.2336 62.7186 47.2729C62.6962 47.246 62.6737 47.2235 62.6558 47.2056C62.2787 46.824 61.8657 46.5187 61.4212 46.2852C60.8106 45.971 60.3797 45.4323 60.2001 44.7723C60.025 44.1079 60.1282 43.4255 60.5009 42.8509C61.5244 41.2526 61.5244 39.192 60.5009 37.5938C60.1327 37.0192 60.025 36.3368 60.2001 35.6724C60.3752 35.0079 60.8106 34.4737 61.4212 34.1594C63.1047 33.2885 64.1373 31.5017 64.0475 29.6072C64.0161 28.9203 64.263 28.2783 64.7478 27.7935C65.2237 27.3176 65.8881 27.0617 66.5615 27.0931C68.4515 27.1829 70.2428 26.1459 71.1138 24.4669C71.428 23.8563 71.9667 23.4253 72.6267 23.2502C73.2866 23.0707 73.969 23.1784 74.5481 23.551C76.1464 24.5746 78.207 24.5746 79.8052 23.551C80.3798 23.1829 81.0622 23.0752 81.7267 23.2502C82.3866 23.4253 82.9253 23.8608 83.2396 24.4669C84.1105 26.1549 85.9018 27.1874 87.7918 27.0931C88.4697 27.0662 89.1296 27.3176 89.6055 27.7935C90.0904 28.2783 90.3373 28.9203 90.3059 29.6072C90.2161 31.5017 91.2486 33.2885 92.9322 34.1594C93.5382 34.4737 93.9737 35.0124 94.1488 35.6724C94.3283 36.3368 94.2206 37.0192 93.848 37.5938C92.8244 39.192 92.8244 41.2526 93.848 42.8509Z" fill="#010101"/>
<path d="M78.0836 44.9292L85.7514 37.2613C85.9849 37.0279 86.1106 36.7181 86.1106 36.3904C86.1106 36.0627 85.9804 35.7529 85.7514 35.5195C85.2711 35.0391 84.4899 35.0391 84.0096 35.5195L77.2126 42.3164L74.2182 39.322C73.9848 39.0885 73.675 38.9628 73.3473 38.9628C73.0196 38.9628 72.7098 39.0885 72.4764 39.322C72.2429 39.5554 72.1172 39.8652 72.1172 40.1929C72.1172 40.5206 72.2474 40.8304 72.4764 41.0638L76.3417 44.9292C76.7996 45.3871 77.6257 45.3826 78.0836 44.9292Z" fill="#010101"/>
<path d="M20.867 24.5835C21.3249 25.0414 22.1509 25.0414 22.6088 24.5835C22.8378 24.3545 22.968 24.0357 22.968 23.7125C22.968 23.3893 22.8378 23.0705 22.6088 22.8416C22.3799 22.6126 22.0611 22.4824 21.7379 22.4824C21.4147 22.4824 21.0959 22.6126 20.867 22.8416C20.638 23.0705 20.5078 23.3893 20.5078 23.7125C20.5078 24.0357 20.638 24.3545 20.867 24.5835Z" fill="#010101"/>
<path d="M39.3518 23.7125C39.3518 23.0346 38.7997 22.4824 38.1218 22.4824H28.8512C28.1733 22.4824 27.6211 23.0346 27.6211 23.7125C27.6211 24.3904 28.1733 24.9426 28.8512 24.9426H38.1218C38.7997 24.9426 39.3518 24.3904 39.3518 23.7125Z" fill="#010101"/>
<path d="M58.7499 57.2399C58.7499 56.562 58.1977 56.0098 57.5198 56.0098H35.7418C35.0639 56.0098 34.5117 56.562 34.5117 57.2399C34.5117 57.9177 35.0639 58.4699 35.7418 58.4699H57.5198C58.1977 58.4699 58.7499 57.9177 58.7499 57.2399Z" fill="#010101"/>
</svg>
