<svg width="118" height="102" viewBox="0 0 118 102" fill="none" xmlns="http://www.w3.org/2000/svg">
<path d="M116.209 17.7346C117.062 17.3171 117.614 16.4686 117.641 15.5168L118 3.12163C118.027 2.28661 117.641 1.49648 116.972 0.998157C116.303 0.504325 115.437 0.369644 114.646 0.630028L102.889 4.58517C101.986 4.89045 101.335 5.66262 101.187 6.60539C101.039 7.54367 101.421 8.48195 102.188 9.04762L104.429 10.7042L104.164 11.0633C102.471 13.3799 100.657 15.6739 98.7764 17.8782C98.314 18.417 98.3814 19.2295 98.9201 19.6919C99.1805 19.9119 99.5127 20.0197 99.8584 19.9927C100.2 19.9658 100.509 19.8042 100.734 19.5438C103.037 16.8457 105.232 14.0263 107.261 11.1666C107.665 10.6009 107.54 9.80183 106.979 9.38881L103.76 7.00495L115.432 3.08123L115.073 15.3866L112.559 13.5235C112.276 13.317 111.935 13.2317 111.594 13.2856C111.252 13.3395 110.943 13.528 110.745 13.8064C99.3152 29.8649 84.0153 43.1355 66.4978 52.1726C48.9623 61.2187 29.2674 65.9999 9.54103 65.9999H5.26715C4.0595 65.9999 3.08082 65.0212 3.08082 63.818C3.08082 62.6149 4.0595 61.6317 5.26715 61.6317H9.54103C25.7791 61.6317 41.5817 58.4039 56.5089 52.0424C71.3239 45.7348 84.5092 36.6663 95.6967 25.0882C95.9347 24.8413 96.0648 24.518 96.0603 24.1723C96.0559 23.8267 95.9122 23.5079 95.6653 23.2655C95.158 22.7761 94.3409 22.7896 93.8471 23.3014C89.4969 27.7998 84.7785 31.9614 79.8312 35.6651L79.71 35.7549H65.6942C63.7233 35.7549 62.1206 37.3576 62.1206 39.324V46.6103L61.8692 46.736C60.2845 47.5216 58.6953 48.2668 57.1464 48.9582L56.5134 49.241V46.085C56.5134 44.1142 54.9107 42.5115 52.9399 42.5115H39.0901C37.1238 42.5115 35.5211 44.1142 35.5211 46.085V56.1547L35.1709 56.231C33.6176 56.5812 32.0238 56.9044 30.4436 57.1917L29.9138 57.286V51.5845C29.9138 49.6181 28.3111 48.0154 26.3448 48.0154H12.495C10.5242 48.0154 8.92149 49.6181 8.92149 51.5845V59.0548H5.26265C2.64085 59.0548 0.503906 61.1873 0.503906 63.8136C0.503906 66.4398 2.63636 68.5723 5.26265 68.5723H8.92149V87.4322H7.53877C3.74524 87.4322 0.661037 90.5164 0.661037 94.3099V99.0687C0.661037 100.465 1.79686 101.601 3.19305 101.601H70.5248C71.2341 101.601 71.8087 101.022 71.8087 100.308C71.8087 99.5939 71.2341 99.0238 70.5248 99.0238H3.23346V94.3099C3.23346 91.935 5.16389 90.0046 7.53877 90.0046H110.884C113.259 90.0046 115.19 91.935 115.19 94.3099V99.0238H91.122C90.4127 99.0238 89.8381 99.5984 89.8381 100.308C89.8381 101.017 90.4127 101.601 91.122 101.601H115.235C116.631 101.601 117.766 100.465 117.766 99.0687V94.3099C117.766 90.5164 114.678 87.4322 110.884 87.4322H109.704V31.517C109.704 29.5461 108.101 27.9434 106.13 27.9434H102.543L103.23 27.1937C106.274 23.8671 109.156 20.3474 111.8 16.7379L112.065 16.3743L113.573 17.4921C114.341 18.0578 115.347 18.1521 116.204 17.7346H116.209ZM64.6931 39.3375C64.6931 38.7898 65.142 38.3408 65.6942 38.3408H76.1544L74.9288 39.1624C71.8491 41.2275 68.6302 43.1669 65.3575 44.9357L64.6976 45.2949V39.3375H64.6931ZM38.098 46.094C38.098 45.5418 38.5469 45.0928 39.0946 45.0928H52.9443C53.4921 45.0928 53.941 45.5418 53.941 46.094V50.332L53.6627 50.4442C48.7827 52.433 43.7366 54.103 38.6592 55.4049L38.098 55.5486V46.0895V46.094ZM11.5029 51.598C11.5029 51.0503 11.9518 50.6013 12.4995 50.6013H26.3448C26.897 50.6013 27.3459 51.0503 27.3459 51.598V57.7215L26.9643 57.7798C22.0529 58.5116 17.0024 58.9381 11.9608 59.0413L11.5029 59.0503V51.598ZM35.5256 87.4457H29.9183V80.9854C29.9183 80.2761 29.3437 79.697 28.6344 79.697C27.925 79.697 27.3459 80.2761 27.3459 80.9854V87.4457H11.5029V68.5678L11.9429 68.5588C16.9261 68.4601 21.9362 68.065 26.8341 67.3871L27.3459 67.3153V73.5824C27.3459 74.2918 27.925 74.8709 28.6344 74.8709C29.3437 74.8709 29.9183 74.2918 29.9183 73.5824V66.9202L30.2954 66.8574C31.7455 66.6194 33.2809 66.3321 34.9868 65.9864L35.5256 65.8787V87.4457ZM53.941 87.4457H38.098V65.3085L38.4437 65.2277C43.4852 64.0425 48.4954 62.5431 53.3349 60.7653L53.9365 60.5453V87.4457H53.941ZM62.1206 87.4457H56.5179V59.5486L56.8007 59.4364C58.3092 58.8303 59.84 58.1794 61.4876 57.4431L62.1206 57.1603V87.4412V87.4457ZM88.7157 87.4457H83.113V74.9607C83.113 74.2514 82.5338 73.6767 81.8245 73.6767C81.1152 73.6767 80.5406 74.2514 80.5406 74.9607V87.4457H64.6931V55.9527L64.949 55.8314C65.9411 55.3511 66.8345 54.9066 67.674 54.4667C71.8177 52.3297 75.912 49.9144 79.8447 47.2971L80.5406 46.8302V65.1289C80.5406 65.8383 81.1152 66.4129 81.8245 66.4129C82.5338 66.4129 83.113 65.8383 83.113 65.1289V45.0345L83.3015 44.8998C84.8369 43.8044 86.4127 42.6192 87.9885 41.3756L88.7157 40.8055V87.4457ZM106.135 30.5158C106.687 30.5158 107.136 30.9648 107.136 31.517V87.4457H91.2881V38.6865L91.4453 38.5518C94.4172 36.0333 97.2815 33.3756 99.9616 30.6505L100.092 30.5158H106.13H106.135Z" fill="#010101"/>
<path d="M81.0312 99.042C80.8965 98.9971 80.7573 98.9746 80.6182 98.9746C80.4117 98.9746 80.2142 99.024 80.0256 99.1183C79.7069 99.2799 79.4734 99.5492 79.3612 99.886C79.2489 100.218 79.2758 100.577 79.4375 100.892C79.6619 101.336 80.1154 101.614 80.6182 101.614C80.8247 101.614 81.0267 101.565 81.2153 101.471C81.5295 101.314 81.763 101.04 81.8707 100.708C81.983 100.371 81.956 100.016 81.7944 99.7019C81.6373 99.3876 81.3634 99.1542 81.0312 99.042Z" fill="#010101"/>
</svg>
