<svg width="109" height="106" viewBox="0 0 109 106" fill="none" xmlns="http://www.w3.org/2000/svg">
<path d="M107.486 90.1759H104.298V62.1083C104.298 61.4259 103.746 60.8737 103.064 60.8737C102.381 60.8737 101.829 61.4259 101.829 62.1083V90.1759H7.37243V33.3718C7.37243 30.732 9.51838 28.5861 12.1626 28.5861H19.3052L28.706 33.5648H13.5902C12.9078 33.5648 12.3556 34.117 12.3556 34.7994V83.9626C12.3556 84.645 12.9078 85.1972 13.5902 85.1972H22.0168C22.6992 85.1972 23.2514 84.645 23.2514 83.9626C23.2514 83.2802 22.6992 82.728 22.0168 82.728H14.8248V36.034H29.8463V42.4134C29.8463 48.3259 33.3525 53.6054 38.7756 55.8591C43.7813 57.9422 49.1102 58.9972 54.6097 58.9972C58.6591 58.9972 62.6726 58.4091 66.5245 57.2553L67.1037 57.0802V59.4955L63.8039 65.2105C62.9913 66.6112 62.9913 68.2902 63.8039 69.6909C64.6165 71.0916 66.0666 71.9311 67.6872 71.9311H68.9892C70.6098 71.9311 72.0599 71.0916 72.8725 69.6909C73.6806 68.2902 73.6806 66.6112 72.8725 65.2105L69.5773 59.5V56.2003L69.8601 56.0881C69.9454 56.0521 70.0352 56.0207 70.1205 55.9893C70.2282 55.9489 70.3405 55.9085 70.4482 55.8636C75.8714 53.6099 79.3731 48.3304 79.3731 42.4179V36.0385H94.3946V82.7325H28.4097C27.7273 82.7325 27.1751 83.2847 27.1751 83.9671C27.1751 84.6495 27.7273 85.2017 28.4097 85.2017H95.6291C96.3115 85.2017 96.8637 84.6495 96.8637 83.9671V34.7994C96.8637 34.117 96.3115 33.5648 95.6291 33.5648H80.5134L89.9142 28.5861H97.0568C99.6965 28.5861 101.842 30.732 101.842 33.3718V53.5471C101.842 54.2295 102.395 54.7817 103.077 54.7817C103.759 54.7817 104.312 54.2295 104.312 53.5471V33.3718C104.312 29.3718 101.057 26.117 97.0568 26.117H92.7515L93.0387 25.484C93.4024 24.6849 93.582 23.8319 93.582 22.9609C93.582 20.6893 92.334 18.6152 90.3272 17.5512L69.4561 6.49838C68.8545 6.17963 68.1047 6.40859 67.786 7.01017C67.4672 7.61174 67.6962 8.36147 68.2978 8.68022L89.1689 19.7331C90.3855 20.3795 91.1128 21.5827 91.1128 22.9609C91.1128 24.3392 90.3855 25.5423 89.1734 26.1888L68.6345 37.071L55.548 22.1484C55.3325 21.9014 55.0317 21.7533 54.6995 21.7308C54.3718 21.7129 54.053 21.8161 53.8061 22.0361C53.2943 22.4851 53.2449 23.2662 53.6939 23.778L66.3943 38.2607L58.3134 42.5436C56.0014 43.7647 53.2404 43.7647 50.9329 42.5436L20.0684 26.1933C18.8518 25.5468 18.1245 24.3437 18.1245 22.9654C18.1245 21.5872 18.8518 20.384 20.0684 19.7376L50.9329 3.38724C53.2449 2.16164 56.0014 2.16164 58.3134 3.38724L62.731 5.7262C63.0228 5.87884 63.355 5.91027 63.6738 5.81599C63.988 5.71722 64.2484 5.50622 64.401 5.21441C64.5537 4.9226 64.5896 4.59039 64.4908 4.27164C64.392 3.95739 64.181 3.697 63.8892 3.54436L59.4717 1.2054C56.4369 -0.401799 52.8139 -0.401799 49.7791 1.2054L18.9146 17.5557C16.9079 18.6197 15.6598 20.6938 15.6598 22.9654C15.6598 23.8408 15.8439 24.6893 16.2031 25.4885L16.4904 26.1215H12.185C8.185 26.1215 4.92575 29.3763 4.92575 33.3763V90.1804H1.73824C1.05586 90.1804 0.503662 90.7326 0.503662 91.415V95.8505C0.503662 101.359 4.98406 105.839 10.4925 105.839H73.4426C74.125 105.839 74.6772 105.287 74.6772 104.605C74.6772 103.922 74.125 103.37 73.4426 103.37H10.4925C6.34435 103.37 2.97282 99.9987 2.97282 95.8505V92.6496H41.7521L41.8239 93.0132C42.4928 96.3668 45.4648 98.8 48.8812 98.8H60.3516C63.7725 98.8 66.74 96.3668 67.4089 93.0132L67.4807 92.6541H106.26V95.855C106.26 100.003 102.888 103.375 98.7403 103.375H88.078C87.3956 103.375 86.8434 103.927 86.8434 104.609C86.8434 105.292 87.3956 105.844 88.078 105.844H98.7403C104.249 105.844 108.729 101.363 108.729 95.855V91.4195C108.729 90.7371 108.177 90.1849 107.495 90.1849L107.486 90.1759ZM69.5683 39.3606L76.895 35.4773V42.4179C76.895 42.997 76.8546 43.5717 76.7782 44.1328C76.2305 48.0611 73.8242 51.464 70.2193 53.2508L69.5728 53.574V39.3651L69.5683 39.3606ZM70.7266 66.4496C71.2518 67.3564 70.9016 68.16 70.7266 68.4608C70.6188 68.6493 70.3719 68.995 69.9499 69.2285C69.694 69.3676 69.3753 69.4664 68.9847 69.4664H67.6827C66.6367 69.4664 66.116 68.7616 65.9409 68.4608C65.896 68.3845 65.8421 68.2767 65.7927 68.1465C65.6446 67.7515 65.5458 67.1274 65.9409 66.4496L68.3337 62.3014L70.7266 66.4496ZM32.311 35.4818L49.7567 44.7254C51.2472 45.5111 52.9217 45.9286 54.6007 45.9286C56.2842 45.9286 57.9588 45.5111 59.4492 44.7254L67.0992 40.676V54.4809L66.7894 54.5841C62.8073 55.895 58.6816 56.5505 54.5648 56.5505C49.5008 56.5505 44.4502 55.5628 39.7184 53.5965C35.2201 51.7244 32.311 47.3428 32.311 42.4314V35.4908V35.4818ZM64.7691 93.2556C64.0778 95.0918 62.3 96.3264 60.3381 96.3264H48.8678C46.9104 96.3264 45.1281 95.0918 44.4368 93.2556L44.2078 92.6496H64.9936L64.7646 93.2556H64.7691Z" fill="black"/>
<path d="M21.541 77.7489H53.4919C54.1742 77.7489 54.7264 77.1968 54.7264 76.5144C54.7264 75.832 54.1742 75.2798 53.4919 75.2798H21.541C20.8586 75.2798 20.3064 75.832 20.3064 76.5144C20.3064 77.1968 20.8586 77.7489 21.541 77.7489Z" fill="black"/>
<path d="M21.541 71.0331H42.9059C43.5883 71.0331 44.1405 70.4809 44.1405 69.7985C44.1405 69.1162 43.5883 68.564 42.9059 68.564H21.541C20.8586 68.564 20.3064 69.1162 20.3064 69.7985C20.3064 70.4809 20.8586 71.0331 21.541 71.0331Z" fill="black"/>
<path d="M81.0974 103.348C80.9627 103.303 80.8236 103.28 80.6844 103.28C80.4779 103.28 80.2803 103.33 80.0918 103.424C79.4408 103.752 79.176 104.546 79.5037 105.197C79.7282 105.642 80.1816 105.92 80.6844 105.92C80.8909 105.92 81.0929 105.871 81.2815 105.776C81.5957 105.619 81.8292 105.345 81.9369 105.013C82.0491 104.681 82.0222 104.322 81.8606 104.008C81.7035 103.693 81.4296 103.46 81.0974 103.348Z" fill="#010101"/>
</svg>
